<?xml version="1.0" encoding="UTF-8" standalone="no"?>
<svg
   xmlns:dc="http://purl.org/dc/elements/1.1/"
   xmlns:cc="http://creativecommons.org/ns#"
   xmlns:rdf="http://www.w3.org/1999/02/22-rdf-syntax-ns#"
   xmlns:svg="http://www.w3.org/2000/svg"
   xmlns="http://www.w3.org/2000/svg"
   version="1.1"
   id="svg3439"
   viewBox="0 0 526.60115 340.87391"
   height="96.202194mm"
   width="148.61855mm">
  <defs
     id="defs3441" />
  <metadata
     id="metadata3444">
    <rdf:RDF>
      <cc:Work
         rdf:about="">
        <dc:format>image/svg+xml</dc:format>
        <dc:type
           rdf:resource="http://purl.org/dc/dcmitype/StillImage" />
        <dc:title></dc:title>
      </cc:Work>
    </rdf:RDF>
  </metadata>
  <g
     transform="translate(-130.98554,-333.35382)"
     id="layer1">
    <path
       style="display:inline;fill:#800000;fill-opacity:1;stroke:none"
       d="m 295.24294,333.35392 c -0.8058,0.013 -1.5992,0.0512 -2.4063,0.0937 -8.609,0.45526 -17.2661,2.61506 -25.5,6.625 -20.018,9.7489 -32.8819,28.26527 -36.375,48.59375 -0.01,-0.002 -0.021,0.002 -0.031,0 l -0.4687,3.625 c -1.3893,12.02723 0.4426,24.52277 6.0937,36.125 0.019,0.0425 0.04,0.0842 0.062,0.125 4.0309,6.88889 10.3199,10.20292 16.3438,9.1875 3.8726,-0.65279 6.5233,-3.54147 7.875,-6.875 1.3477,-3.32385 1.6024,-7.1625 1.0312,-10.625 0,-0.0101 0,-0.0211 0,-0.0313 -1.5013,-9.98887 -6.9242,-18.94298 -15.0625,-24.90625 -2.8035,-2.05431 -5.8264,-3.59806 -8.9375,-4.75 l -0.7812,3.46875 c 2.6549,1.0225 5.2173,2.36076 7.625,4.125 7.3884,5.41385 12.3013,13.52916 13.6562,22.59375 -10e-5,0.0104 -10e-5,0.0208 0,0.0313 0.4736,2.84417 0.2315,6.2067 -0.8125,8.78125 -1.0439,2.57455 -2.665,4.26756 -5.1562,4.6875 -4.3909,0.74014 -9.2034,-1.51078 -12.6875,-7.4375 -0.01,-0.0138 -0.023,-0.0174 -0.031,-0.0313 -5.2509,-10.84212 -6.9867,-22.51292 -5.75,-33.75 l 0,-0.0625 0.4687,-3.53125 c 0.01,-0.0521 0.022,-0.10419 0.031,-0.15625 3.3013,-19.23516 15.4962,-36.76027 34.4688,-46 8.0449,-3.9179 16.5103,-5.96595 24.9062,-6.3125 0.021,-8.7e-4 0.042,8.4e-4 0.062,0 12.3562,1.19651 24.44,6.304 33.8438,14.34375 6.5289,5.41074 13.3379,15.73374 15.5,23.84375 l 0,162.84375 c 10.955,-4.15842 21.5311,-9.56434 32,-15.4375 l 0,-155.375 c 0.4174,-8.22 4.4133,-15.48152 10.375,-20.40625 -6.309,1.93649 -13.8704,8.75 -24.4688,8.75 -9.5276,-0.27073 -17.3073,-4.07601 -24.5,-8.5625 -11.8399,-9.00841 -26.469,-13.59375 -41.375,-13.59375 z m 245.49999,0.0937 c -19.1661,0.22055 -37.4625,3.89967 -52.875,10.75 -49.65621,22.86799 -81.53759,47.91661 -91.93749,131.34375 -0.5598,15.33254 -0.094,29.7309 1.3437,43.21875 -2.2279,1.3117 -4.4541,2.62376 -6.6875,3.9375 -27.231,16.01795 -55.0266,31.56792 -87.9375,32 l -2.0625,0.0313 c -0.1754,-10e-4 -0.3555,0.002 -0.5312,0 -3.3288,-0.0374 -6.7175,-0.22882 -10.1563,-0.59375 a 1.7718307,1.7718307 0 0 0 -0.125,0 c -17.3903,-0.72138 -31.0253,-15.47974 -30.3437,-33.03125 0.4908,-12.63943 8.2546,-23.24431 19.125,-27.9375 l -2.75,-2.625 c -11.3671,5.50648 -19.414,16.95595 -19.9375,30.4375 -0.7543,19.42532 14.3979,35.82438 33.6562,36.6875 0.039,0.004 0.055,-0.004 0.094,0 2.8209,0.29639 5.5967,0.48129 8.3438,0.5625 0.8877,0.0262 1.7759,0.0264 2.6562,0.0313 l 1.0625,0.0313 c 0,-0.01 0,-0.0216 0,-0.0313 14.7618,-0.0608 28.4883,-3.0734 41.5313,-7.78125 l 0,57.84375 c -4.1147,14.95699 -17.5715,30.46811 -33.0313,39.78125 -24.5887,15.28117 -53.6667,26.13468 -91.0937,16.84375 -104.8053,-34.46131 -98.0468,-176.99639 -0.9688,-196.46875 22.9407,-1.91336 46.2778,5.32664 62.7188,21.84375 3.7941,3.81164 7.217,8.10301 10.1875,12.90625 8.87,14.34252 11.8484,31.86429 8.75,47.9375 l 3.625,0.0313 c 3.0516,-16.75147 -0.1292,-34.9128 -9.3438,-49.8125 -2.3325,-3.77167 -4.955,-7.24828 -7.7812,-10.4375 l -0.062,-0.0937 c -0.6979,-0.78511 -1.4002,-1.53149 -2.125,-2.28125 l -0.625,-0.6875 c -0.01,0.002 -0.021,-0.002 -0.031,0 -15.2338,-15.36678 -36.098,-23.09406 -57.3125,-23.28125 -0.8618,-0.008 -1.7312,0.014 -2.5938,0.0313 -13.4564,0.26904 -26.9606,3.56531 -39.1875,9.84375 -0.029,0.0148 -0.065,0.0165 -0.094,0.0313 -3.8551,1.78522 -7.6045,3.87658 -11.1875,6.25 -46.7679,30.97992 -54.4883,96.53517 -23.4375,141.34375 11.1988,16.16054 25.9181,28.26335 42.4375,36.3125 45.0265,23.3997 85.6978,19.22584 127.8438,-2.03125 22.932,-10.45231 31.286,-26.78335 42.125,-27 10.5984,0 17.2535,4.40726 23.5625,6.34375 -6.0008,-4.95615 -9.9993,-12.30868 -10.375,-20.59375 l 0,-79.5625 c 5.7939,-3.18431 11.5049,-6.48822 17.1562,-9.8125 30.1599,-17.74077 58.85288,-35.42057 92.06254,-33.3125 l 3,-3.34375 c -0.27061,-0.0174 -0.54017,-0.0512 -0.8125,-0.0625 -0.027,-0.002 -0.0668,-0.0292 -0.0937,-0.0313 -2.21103,-0.18719 -4.39268,-0.28899 -6.5625,-0.3125 -18.42451,-0.19966 -35.41241,5.30626 -51.90625,13.1875 -0.27254,-8.88025 -0.28674,-17.42435 -0.15625,-25.34375 8.77603,-118.05657 77.80771,-155.84099 138.4375,-136.46875 20.83071,8.51272 29.22243,14.34387 41.9375,34.75 1.55692,3.59665 2.76084,7.3406 3.625,11.15625 l 3.3125,-0.8125 c -2.6829,-9.76441 -6.64571,-19.27398 -6.75,-28.59375 0,-10.59839 5.28226,-16.19099 7.21875,-22.5 -4.94353,5.98552 -12.27205,7.95107 -20.53125,8.34375 -0.0628,0.003 -0.12457,-0.003 -0.1875,0 -3.50554,0.82948 -29.72057,-8.50855 -46.25,-8.84375 -1.37715,-0.0525 -2.75446,-0.10778 -4.125,-0.125 -1.28488,-0.0161 -2.56601,-0.0147 -3.84375,0 z m 82.78125,54.625 c -0.76019,-0.0154 -1.51994,0.002 -2.28125,0.0313 -1.74015,0.0674 -3.49188,0.25887 -5.21875,0.5625 l -3.75,0.8125 c -4.23447,1.19531 -8.33899,3.06122 -12.09375,5.8125 -8.13824,5.96325 -13.59242,14.91742 -15.09375,24.90625 -0.002,0.0101 0.002,0.0211 0,0.0313 -0.57115,3.46246 -0.28523,7.30119 1.0625,10.625 1.35166,3.33349 3.97115,6.22222 7.84375,6.875 6.02384,1.01541 12.34416,-2.29865 16.375,-9.1875 0.0225,-0.0408 0.0433,-0.0825 0.0625,-0.125 5.11175,-10.4949 6.99288,-21.7103 6.28125,-32.65625 l -3.4375,0.9375 c 0.54022,10.08965 -1.2863,20.3937 -5.96875,30.0625 -0.006,0.0123 -0.0253,0.0188 -0.0313,0.0313 -3.48411,5.92686 -8.29655,8.17766 -12.6875,7.4375 -2.4913,-0.41995 -4.11231,-2.11291 -5.15625,-4.6875 -1.04394,-2.57459 -1.31729,-5.93705 -0.84375,-8.78125 9e-5,-0.0104 9e-5,-0.0208 0,-0.0313 1.35493,-9.06463 6.29901,-17.17988 13.6875,-22.59375 3.22039,-2.35972 6.73171,-3.9665 10.34375,-5.0625 l 0.1875,-0.0313 c 0.0531,-0.0159 0.10313,-0.0469 0.15625,-0.0625 l 3.4375,-0.8125 0.25,-0.0625 0,0.0313 c 12.52918,-2.2209 25.77406,2.46719 33.8125,13.4375 0.54814,0.75267 1.71608,0.9544 2.46875,0.40625 0.75268,-0.54814 0.95439,-1.74733 0.40625,-2.5 -7.25307,-9.8985 -18.40959,-15.17534 -29.8125,-15.40625 z m -400.37504,0.0313 c -11.2919,0.31707 -22.3106,5.56349 -29.5,15.375 -0.6426,0.73579 -0.5054,2.01455 0.2813,2.59375 0.7867,0.5792 2.0507,0.33211 2.5625,-0.5 7.3413,-10.01891 19.0419,-14.80946 30.5625,-13.875 l 0.4062,-3.46875 c -1.4391,-0.12059 -2.8751,-0.16536 -4.3125,-0.125 z m 327.56254,76.5625 c -21.95827,0.19373 -43.53464,8.49421 -58.875,24.96875 -0.005,0.005 -0.0265,-0.005 -0.0313,0 l -0.46875,0.53125 c -0.53359,0.58426 -1.0447,1.17681 -1.5625,1.78125 l -0.75,0.84375 c -2.22329,2.67687 -4.29461,5.56423 -6.1875,8.625 -9.11718,14.74227 -12.30803,32.6776 -9.40625,49.28125 l 3.625,0.9375 c -3.23586,-16.20852 -0.27414,-33.94674 8.6875,-48.4375 2.15677,-3.48745 4.55304,-6.722 7.15625,-9.6875 l 0.125,-0.15625 2.40625,-2.5625 0.1875,-0.1875 c 16.92649,-17.23813 41.27838,-24.53444 65,-22.03125 10.09304,2.28267 19.87384,6.34917 28.6875,12.1875 10.10343,7.51835 19.56659,20.28542 25.90625,28.96875 l -0.0937,102.46875 c -9.21511,22.47716 -47.23256,41.67753 -68.28125,40.125 -0.0206,0.002 -0.0419,-0.002 -0.0625,0 -93.31133,-1.49657 -114.31239,-75.44816 -118.1875,-138.28125 -9.85724,4.88185 -19.71654,10.63509 -29.78124,16.5625 12.6575,80.69247 63.7845,124.6451 149.96874,125.46875 19.3822,-0.43592 41.66916,-5.54594 56.3125,-13.6875 8.22963,-4.84809 23.00246,-13.50951 30.9375,-13.8125 10.59839,0 15.25349,5.21976 21.5625,7.15625 -6.0008,-4.95615 -9.99924,-12.30868 -10.375,-20.59375 l 0,-109.96875 c 0.41743,-8.22 4.4133,-15.48152 10.375,-20.40625 -6.30901,1.93649 -12.94039,7.61808 -23.53125,7.21875 -14.01652,-0.2781 -18.94816,-4.69051 -28.75,-11.21875 -7.26155,-4.81018 -15.17254,-8.38742 -23.375,-10.78125 -9.23944,-3.31872 -18.93611,-5.08742 -28.625,-5.28125 -0.86181,-0.0172 -1.73272,-0.0388 -2.59375,-0.0313 z m -260.00004,22.375 c -0.9925,0.0119 -1.9649,0.0632 -2.9375,0.15625 l 3.1563,3.375 c 0.491,-0.003 0.973,0.012 1.4687,0.0313 17.0272,0.66117 30.4724,14.58508 30.5313,31.625 a 1.7718307,1.7718307 0 1 0 3.5312,0 c -0.065,-18.90187 -15.0497,-34.42283 -33.9375,-35.15625 -0.6082,-0.0236 -1.2105,-0.0384 -1.8125,-0.0313 z m 208.56254,4.90625 -2.59375,2.78125 c 12.28974,4.76767 20.75948,16.88722 20.21875,30.8125 -0.68154,17.55151 -15.41725,31.18153 -32.96875,30.5 -2.07306,-0.0805 -4.08207,-0.35712 -6.03125,-0.8125 l -0.15625,-0.0313 -2.9375,-0.875 c -0.0934,-0.0321 -0.18829,-0.0608 -0.28125,-0.0937 l -0.40625,-0.125 c -12.10622,-4.47681 -20.67175,-16.0949 -20.71875,-29.6875 a 1.7813187,1.7813187 0 1 0 -3.5625,0.0313 c 0.0593,17.12983 12.41042,31.47597 28.78125,34.5625 0.0525,0.01 0.10362,0.0216 0.15625,0.0313 l 0.28125,0.0625 c -0.003,-0.009 0.003,-0.0218 0,-0.0313 1.55447,0.27277 3.13171,0.46841 4.75,0.53125 19.46501,0.75583 35.86917,-14.47248 36.625,-33.9375 0.58028,-14.94356 -8.22207,-28.07551 -21.15625,-33.71875 z m 48.90625,42.4375 c -11.92671,0.42297 -17.07917,12.94693 -8.53125,19.875 4.84678,3.55146 11.66727,2.50303 15.21875,-2.34375 2.97818,-4.06442 2.70645,-9.50415 -0.3125,-13.25 6.24361,1.94233 10.18876,6.85449 12.25,12.9375 2.37129,6.998 2.02395,15.48245 -0.71875,21.90625 -5.01373,11.74289 -15.02018,18.81192 -26.5,21.5625 -11.47982,2.75058 -24.40939,1.09643 -34.875,-4.65625 -11.71966,-6.442 -19.82172,-16.3957 -24.40625,-27.84375 l -3.875,-0.6875 c 4.69898,12.93817 13.52118,24.27998 26.65625,31.5 11.25108,6.18443 24.94732,7.92397 37.28125,4.96875 12.33393,-2.95522 23.35014,-10.70637 28.8125,-23.5 3.11389,-7.29321 3.50981,-16.47582 0.84375,-24.34375 -2.66606,-7.86793 -8.61974,-14.48516 -17.9375,-15.84375 -1.37124,-0.23473 -2.67245,-0.32501 -3.90625,-0.28125 z m -322.53129,0.125 c -0.3078,0.007 -0.6017,0.0352 -0.9062,0.0625 -9.3482,1.36302 -15.3584,8.04962 -18.0313,15.9375 -2.6728,7.88788 -2.2786,17.06186 0.8438,24.375 5.4726,12.81773 16.5215,20.60259 28.875,23.5625 12.3535,2.95991 26.0747,1.19433 37.3437,-5 13.2055,-7.25869 22.0592,-18.67378 26.75,-31.6875 l -3.7812,-0.0625 c -4.5206,11.78271 -12.7047,22.0696 -24.6875,28.65625 -10.4476,5.74278 -23.3523,7.40213 -34.8125,4.65625 -11.4602,-2.74588 -21.4341,-9.81246 -26.4375,-21.53125 -2.7342,-6.40386 -3.0833,-14.8657 -0.7188,-21.84375 2.3646,-6.97805 7.1951,-12.37045 15.1563,-13.53125 0.082,-0.0119 0.1931,0.007 0.2812,0 -1.3139,0.73752 -2.52,1.76782 -3.4687,3.0625 l -0.625,0.96875 c -2.7758,4.80783 -1.5093,10.93745 2.9687,14.21875 4.8468,3.55147 11.6673,2.50305 15.2188,-2.34375 6.4518,-10.42844 -4.4248,-19.72428 -13.9688,-19.5 z"
       id="path3133" />
  </g>
</svg>
